<?xml version="1.0" standalone="no"?><!DOCTYPE svg PUBLIC "-//W3C//DTD SVG 1.1//EN" "http://www.w3.org/Graphics/SVG/1.1/DTD/svg11.dtd"><svg t="1605342580471" class="icon" viewBox="0 0 1024 1024" version="1.1" xmlns="http://www.w3.org/2000/svg" p-id="1638" width="1024" height="1024" xmlns:xlink="http://www.w3.org/1999/xlink"><defs><style type="text/css"></style></defs><path d="M380.08 872.3a45.463 45.463 0 0 0-45.46 0 45.473 45.473 0 0 0-22.73 39.37c0 16.24 8.67 31.24 22.73 39.36a45.415 45.415 0 0 0 45.46 0 45.469 45.469 0 0 0 22.73-39.36c0-16.24-8.67-31.25-22.73-39.37zM725.56 871.23a45.463 45.463 0 0 0-45.46 0c-14.06 8.12-22.73 23.13-22.73 39.37s8.66 31.25 22.73 39.37a45.463 45.463 0 0 0 45.46 0c14.06-8.12 22.73-23.13 22.73-39.37s-8.66-31.25-22.73-39.37zM933.78 353.6c-20.02-26.46-50.5-41.61-83.65-41.61h-0.34l-676.33 1.91-40.49-220.37c-3.21-17.5-19.97-29.1-37.49-25.85-17.5 3.21-29.07 19.99-25.85 37.49l41.21 224.37 79.26 449.71a86.564 86.564 0 0 0 85.42 71.7h0.28l494.89-1.53c38.44-0.12 72.64-26.01 83.17-62.97l97.15-340.74c9.13-32 2.85-65.57-17.23-92.11z m-44.71 74.44l-97.15 340.75c-2.72 9.52-11.52 16.18-21.42 16.21l-494.91 1.53h-0.07c-10.86 0-20.11-7.76-22-18.46l-68.64-389.49h0.45l-0.05-0.29 664.69-1.88h0.14c12.8 0 24.57 5.85 32.3 16.07 7.76 10.24 10.18 23.2 6.66 35.56z" fill="#2c2c2c" p-id="1639"></path><path d="M677.64 621.69l-300.02 0.85c-17.43 0.24-31.41 13.43-31.36 29.58 0.06 16.15 14.12 29.26 31.56 29.39l300.02-0.85c11.45 0.09 22.08-5.54 27.81-14.73 5.74-9.19 5.7-20.53-0.1-29.69-5.8-9.15-16.45-14.71-27.91-14.55z" fill="#2c2c2c" p-id="1640"></path></svg>