<?xml version="1.0" standalone="no"?><!DOCTYPE svg PUBLIC "-//W3C//DTD SVG 1.1//EN" "http://www.w3.org/Graphics/SVG/1.1/DTD/svg11.dtd"><svg t="1606018086891" class="icon" viewBox="0 0 1024 1024" version="1.1" xmlns="http://www.w3.org/2000/svg" p-id="2840" xmlns:xlink="http://www.w3.org/1999/xlink" width="1024" height="1024"><defs><style type="text/css"></style></defs><path d="M856 504.576a55.84 55.84 0 0 0-48 16.256V480a296 296 0 0 0-592 0h-48C168 290.016 322.016 136 512 136S856 290.016 856 480v24.576z m-26.56 172.256A344.096 344.096 0 0 1 512 888v-48c131.264 0 242.56-85.44 281.344-203.744 4.224 18.912 18.016 34.24 36.064 40.576z" fill="#000000" p-id="2841"></path><path d="M512 864m-64 0a64 64 0 1 0 128 0 64 64 0 1 0-128 0Z" fill="#000000" p-id="2842"></path><path d="M848 456a104 104 0 0 1 104 104v64a104 104 0 0 1-208 0v-64a104 104 0 0 1 104-104z m0 48a56 56 0 0 0-56 56v64a56 56 0 0 0 112 0v-64a56 56 0 0 0-56-56zM176 456a104 104 0 0 1 104 104v64a104 104 0 0 1-208 0v-64a104 104 0 0 1 104-104z m0 48a56 56 0 0 0-56 56v64a56 56 0 0 0 112 0v-64a56 56 0 0 0-56-56z" fill="#000000" p-id="2843"></path></svg>